<svg xmlns="http://www.w3.org/2000/svg" xmlns:xlink="http://www.w3.org/1999/xlink" width="500" zoomAndPan="magnify" viewBox="0 0 375 374.999991" height="500" preserveAspectRatio="xMidYMid meet" version="1.0"><defs><clipPath id="88d7812a47"><path d="M 124.03125 165.859375 L 279.976562 165.859375 L 279.976562 323.554688 L 124.03125 323.554688 Z M 124.03125 165.859375 " clip-rule="nonzero"/></clipPath></defs><path fill="#9ca0ff" d="M 141.003906 268.5 C 133.335938 268.5 126.398438 263.234375 124.578125 255.4375 L 96.851562 136.625 C 94.730469 127.535156 100.371094 118.445312 109.449219 116.324219 C 118.527344 114.199219 127.605469 119.847656 129.726562 128.933594 L 157.453125 247.75 C 159.574219 256.839844 153.933594 265.929688 144.855469 268.050781 C 143.566406 268.351562 142.273438 268.5 141.003906 268.5 " fill-opacity="1" fill-rule="nonzero"/><path fill="#7a81ff" d="M 141.039062 258.550781 C 140.335938 258.550781 139.632812 258.507812 138.917969 258.417969 C 129.667969 257.257812 123.109375 248.8125 124.269531 239.550781 L 143.25 87.773438 C 144.410156 78.507812 152.847656 71.9375 162.097656 73.101562 C 171.347656 74.261719 177.90625 82.710938 176.746094 91.972656 L 157.765625 243.75 C 156.695312 252.296875 149.425781 258.550781 141.039062 258.550781 " fill-opacity="1" fill-rule="nonzero"/><path fill="#6169ff" d="M 164.972656 209.953125 C 162.753906 209.953125 160.5 209.515625 158.332031 208.582031 C 149.761719 204.90625 145.792969 194.972656 149.464844 186.390625 L 201.914062 63.898438 C 205.585938 55.320312 215.507812 51.347656 224.078125 55.023438 C 232.644531 58.699219 236.613281 68.636719 232.941406 77.214844 L 180.496094 199.710938 C 177.753906 206.117188 171.519531 209.953125 164.972656 209.953125 " fill-opacity="1" fill-rule="nonzero"/><g clip-path="url(#88d7812a47)"><path fill="#4a53ff" d="M 202.628906 323.554688 C 188.128906 323.554688 173.878906 319.515625 161.253906 311.664062 C 143.394531 300.558594 130.925781 283.15625 126.140625 262.660156 C 116.261719 220.355469 142.605469 177.886719 184.867188 168 C 215.921875 160.730469 248.03125 172.777344 266.671875 198.691406 C 272.121094 206.261719 270.402344 216.824219 262.835938 222.28125 C 255.273438 227.734375 244.722656 226.015625 239.277344 218.441406 C 228.632812 203.640625 210.292969 196.757812 192.550781 200.910156 C 168.417969 206.558594 153.375 230.808594 159.015625 254.96875 C 161.746094 266.671875 168.867188 276.609375 179.066406 282.953125 C 189.261719 289.292969 201.320312 291.277344 213.007812 288.546875 C 229.917969 284.585938 242.808594 271.582031 246.640625 254.609375 C 248.695312 245.503906 257.734375 239.792969 266.824219 241.851562 C 275.917969 243.90625 281.625 252.957031 279.570312 262.058594 C 276.359375 276.277344 269.285156 289.316406 259.105469 299.769531 C 248.636719 310.527344 235.351562 318.023438 220.691406 321.457031 C 214.695312 322.859375 208.640625 323.554688 202.628906 323.554688 " fill-opacity="1" fill-rule="nonzero"/></g></svg>