<svg xmlns="http://www.w3.org/2000/svg" xmlns:xlink="http://www.w3.org/1999/xlink" width="250" zoomAndPan="magnify" viewBox="0 0 187.5 374.999989" height="500" preserveAspectRatio="xMidYMid meet" version="1.0"><defs><clipPath id="abab361aa1"><path d="M 38.6875 169.125 L 174.429688 169.125 L 174.429688 305.964844 L 38.6875 305.964844 Z M 38.6875 169.125 " clip-rule="nonzero"/></clipPath></defs><path fill="#9ca0ff" d="M 53.460938 258.1875 C 46.785156 258.1875 40.75 253.621094 39.164062 246.855469 L 15.03125 143.757812 C 13.183594 135.867188 18.09375 127.984375 25.996094 126.140625 C 33.898438 124.296875 41.796875 129.199219 43.644531 137.082031 L 67.78125 240.183594 C 69.625 248.070312 64.714844 255.957031 56.816406 257.800781 C 55.691406 258.0625 54.566406 258.1875 53.460938 258.1875 " fill-opacity="1" fill-rule="nonzero"/><path fill="#7a81ff" d="M 53.492188 249.558594 C 52.882812 249.558594 52.265625 249.519531 51.644531 249.441406 C 43.59375 248.4375 37.882812 241.105469 38.894531 233.070312 L 55.417969 101.363281 C 56.425781 93.328125 63.769531 87.625 71.820312 88.636719 C 79.871094 89.640625 85.582031 96.972656 84.574219 105.007812 L 68.050781 236.710938 C 67.121094 244.132812 60.789062 249.558594 53.492188 249.558594 " fill-opacity="1" fill-rule="nonzero"/><path fill="#6169ff" d="M 74.324219 207.386719 C 72.394531 207.386719 70.429688 207.003906 68.542969 206.199219 C 61.085938 203.007812 57.628906 194.386719 60.828125 186.941406 L 106.480469 80.648438 C 109.675781 73.203125 118.3125 69.757812 125.773438 72.949219 C 133.230469 76.136719 136.683594 84.757812 133.488281 92.203125 L 87.835938 198.496094 C 85.449219 204.058594 80.023438 207.386719 74.324219 207.386719 " fill-opacity="1" fill-rule="nonzero"/><g clip-path="url(#abab361aa1)"><path fill="#4a53ff" d="M 107.101562 305.964844 C 94.480469 305.964844 82.078125 302.460938 71.085938 295.648438 C 55.542969 286.007812 44.6875 270.90625 40.523438 253.125 C 31.925781 216.410156 54.855469 179.5625 91.640625 170.980469 C 118.671875 164.675781 146.625 175.128906 162.847656 197.613281 C 167.589844 204.183594 166.09375 213.351562 159.511719 218.082031 C 152.925781 222.816406 143.742188 221.324219 139 214.753906 C 129.734375 201.910156 113.773438 195.9375 98.328125 199.539062 C 77.324219 204.441406 64.226562 225.484375 69.136719 246.449219 C 71.515625 256.605469 77.714844 265.226562 86.589844 270.730469 C 95.46875 276.234375 105.960938 277.957031 116.136719 275.585938 C 130.855469 272.148438 142.074219 260.863281 145.410156 246.136719 C 147.199219 238.234375 155.070312 233.277344 162.980469 235.066406 C 170.898438 236.851562 175.863281 244.703125 174.074219 252.601562 C 171.28125 264.9375 165.121094 276.253906 156.261719 285.324219 C 147.148438 294.660156 135.585938 301.164062 122.824219 304.144531 C 117.605469 305.359375 112.332031 305.964844 107.101562 305.964844 " fill-opacity="1" fill-rule="nonzero"/></g></svg>